<svg xmlns="http://www.w3.org/2000/svg" viewBox="0 0 48 48" width="48" height="48">
  <defs>
    <radialGradient id="waBg" cx="50%" cy="100%" r="100%">
      <stop offset="0%" stop-color="#25D366"/>
      <stop offset="100%" stop-color="#128C7E"/>
    </radialGradient>
    <filter id="shadow" x="-10%" y="-10%" width="120%" height="120%">
      <feDropShadow dx="0" dy="1" stdDeviation="1.5" flood-color="#00000033"/>
    </filter>
  </defs>
  <!-- Background circle -->
  <circle cx="24" cy="24" r="24" fill="url(#waBg)" filter="url(#shadow)"/>
  <!-- WhatsApp official phone icon -->
  <path fill="#FFFFFF" d="
    M24 7.5C15.44 7.5 8.5 14.44 8.5 23c0 2.72.72 5.27 1.97 7.47L8.5 40.5l10.27-1.95A15.43 15.43 0 0 0 24 40.5c8.56 0 15.5-6.94 15.5-15.5S32.56 7.5 24 7.5zm0 28.3a12.73 12.73 0 0 1-6.49-1.77l-.46-.28-4.8.91.95-4.68-.3-.48A12.72 12.72 0 0 1 11.2 23c0-7.06 5.74-12.8 12.8-12.8S36.8 15.94 36.8 23 31.06 35.8 24 35.8zm7.02-9.57c-.38-.19-2.27-1.12-2.62-1.25-.35-.13-.61-.19-.87.19-.26.38-1 1.25-1.23 1.51-.22.26-.45.29-.83.1-.38-.19-1.62-.6-3.08-1.9-1.14-1.02-1.91-2.27-2.13-2.65-.22-.38-.02-.58.17-.77.17-.17.38-.45.57-.67.19-.22.25-.38.38-.64.13-.26.06-.48-.03-.67-.1-.19-.87-2.1-1.19-2.87-.31-.75-.63-.65-.87-.66l-.74-.01c-.26 0-.67.1-1.02.48-.35.38-1.33 1.3-1.33 3.17s1.36 3.68 1.55 3.93c.19.26 2.68 4.09 6.5 5.74.91.39 1.62.63 2.17.8.91.29 1.74.25 2.4.15.73-.11 2.27-.93 2.59-1.82.32-.9.32-1.67.22-1.82-.09-.16-.35-.25-.73-.44z
  "/>
</svg>
